<?xml version="1.0" encoding="utf-8"?>
<!-- Generator: Adobe Illustrator 16.0.0, SVG Export Plug-In . SVG Version: 6.00 Build 0)  -->
<!DOCTYPE svg PUBLIC "-//W3C//DTD SVG 1.1//EN" "http://www.w3.org/Graphics/SVG/1.1/DTD/svg11.dtd">
<svg version="1.1" id="Livello_1" xmlns="http://www.w3.org/2000/svg" xmlns:xlink="http://www.w3.org/1999/xlink" x="0px" y="0px"
	 width="303px" height="50px" viewBox="0 0 303 50" enable-background="new 0 0 303 50" xml:space="preserve">
<rect x="-375" y="147" fill="#1A171B" stroke="#FFFFFF" stroke-miterlimit="10" width="966" height="250"/>
<g>
	<path fill="none" d="M190.869,37.264c0.824-1.37,1.025-2.258,0.604-2.665c-0.271-0.265-0.842-0.437-1.713-0.516
		c-0.869-0.079-2.572-0.12-5.105-0.12h-10.291l-4.148,6.892h10.293c2.727,0,4.496-0.032,5.305-0.1
		c0.811-0.065,1.535-0.231,2.176-0.496C188.951,39.853,189.912,38.854,190.869,37.264z"/>
	<path fill="none" d="M163.611,37.264c0.824-1.37,1.025-2.258,0.604-2.665c-0.271-0.265-0.842-0.437-1.711-0.516
		c-0.871-0.079-2.572-0.12-5.107-0.12h-10.291l-4.148,6.892h10.292c2.387,0,4.039-0.024,4.957-0.075
		c0.133-0.008,0.248-0.016,0.35-0.024c0.809-0.065,1.533-0.231,2.176-0.496C161.693,39.853,162.654,38.854,163.611,37.264z"/>
	<path fill="none" d="M218.951,34.229c-0.744-0.106-1.615-0.174-2.613-0.206c-0.996-0.03-2.939-0.051-5.826-0.06
		c-0.732,0-1.422,0.007-2.064,0.02c-1.932,0.038-3.459,0.133-4.58,0.286c-0.869,0.114-1.564,0.311-2.086,0.59
		c-0.521,0.276-1.043,0.73-1.564,1.357c-0.842,1.009-1.848,2.482-3.018,4.428c-1.201,1.996-2.014,3.451-2.436,4.366
		c-0.422,0.914-0.559,1.526-0.404,1.837c0.111,0.255,0.385,0.44,0.818,0.556c0.434,0.114,1.176,0.203,2.225,0.265
		c1.732,0.106,3.787,0.158,6.166,0.158c3.385,0,5.918-0.118,7.6-0.356c1.316-0.178,2.404-0.791,3.264-1.843
		c0.916-1.131,1.959-2.669,3.129-4.612c1.432-2.376,2.336-4.051,2.715-5.022C220.666,35.002,220.225,34.414,218.951,34.229z"/>
	<polygon fill="none" points="127.986,33.963 115.317,43.996 129.61,43.996 129.109,33.963 	"/>
	<path fill="#FFFFFF" d="M192.074,39.682c0.461-0.544,1.004-1.336,1.633-2.379c0.83-1.379,1.256-2.451,1.275-3.22
		c0.025-1.149-0.771-1.82-2.387-2.015c-0.916-0.115-3.137-0.189-6.664-0.226h-13.094l-10.887,18.09h2.801l4.188-6.957h10.291
		c2.354,0.01,3.73,0.02,4.127,0.033s0.832,0.051,1.309,0.112c1.186,0.194,1.535,0.866,1.049,2.015
		c-0.268,0.564-0.846,1.585-1.734,3.062l-1.045,1.735h2.801l1.547-2.571c0.914-1.519,1.471-2.535,1.666-3.049
		c0.195-0.511,0.205-0.953,0.027-1.324c-0.25-0.468-0.789-0.769-1.611-0.901c1.287-0.212,2.359-0.578,3.217-1.099
		C191.117,40.66,191.613,40.226,192.074,39.682z M185.813,40.755c-0.809,0.067-2.578,0.1-5.305,0.1h-10.293l4.148-6.892h10.291
		c2.533,0,4.236,0.041,5.105,0.12c0.871,0.079,1.441,0.251,1.713,0.516c0.422,0.407,0.221,1.295-0.604,2.665
		c-0.957,1.59-1.918,2.589-2.881,2.995C187.348,40.523,186.623,40.689,185.813,40.755z"/>
	<path fill="#FFFFFF" d="M160.109,42.087c1.285-0.212,2.357-0.578,3.215-1.099c0.535-0.328,1.033-0.763,1.492-1.307
		c0.461-0.544,1.006-1.336,1.633-2.379c0.83-1.379,1.256-2.451,1.277-3.22c0.023-1.149-0.771-1.82-2.387-2.015
		c-0.918-0.115-3.139-0.189-6.666-0.226h-13.092l-10.888,18.09h2.8l4.187-6.957h10.292c2.354,0.01,3.729,0.02,4.126,0.033
		c0.398,0.014,0.834,0.051,1.309,0.112c1.186,0.194,1.537,0.866,1.049,2.015c-0.268,0.564-0.846,1.585-1.734,3.062l-1.045,1.735
		h2.801l1.547-2.571c0.916-1.519,1.469-2.535,1.666-3.049c0.195-0.511,0.205-0.953,0.029-1.324
		C161.469,42.521,160.932,42.22,160.109,42.087z M158.557,40.755c-0.102,0.009-0.217,0.017-0.35,0.024
		c-0.918,0.051-2.57,0.075-4.957,0.075h-10.292l4.148-6.892h10.291c2.535,0,4.236,0.041,5.107,0.12
		c0.869,0.079,1.439,0.251,1.711,0.516c0.422,0.407,0.221,1.295-0.604,2.665c-0.957,1.59-1.918,2.589-2.879,2.995
		C160.09,40.523,159.365,40.689,158.557,40.755z"/>
	<path fill="#FFFFFF" d="M222.809,36.641c0.42-0.901,0.672-1.602,0.756-2.101c0.086-0.498,0.021-0.93-0.191-1.292
		c-0.33-0.574-1.172-0.961-2.523-1.16c-1.354-0.197-3.824-0.299-7.414-0.299c-4.375,0.01-7.541,0.133-9.5,0.371
		c-0.268,0.033-0.527,0.074-0.783,0.125c-1.789,0.353-3.303,1.155-4.541,2.406c-0.893,0.909-1.938,2.287-3.137,4.134
		c-0.398,0.615-0.814,1.283-1.248,2.004c-1.467,2.438-2.406,4.169-2.813,5.194s-0.467,1.821-0.182,2.387
		c0.211,0.433,0.559,0.75,1.041,0.953c0.484,0.204,1.223,0.35,2.215,0.438c0.578,0.045,1.816,0.088,3.711,0.132
		c1.898,0.044,3.635,0.067,5.215,0.067c3.211,0,5.582-0.104,7.119-0.313c1.533-0.207,2.781-0.594,3.736-1.159
		c0.914-0.53,1.836-1.367,2.766-2.511c0.928-1.145,2.064-2.831,3.404-5.057C221.486,39.221,222.275,37.78,222.809,36.641z
		 M220.275,35.991c-0.379,0.972-1.283,2.646-2.715,5.022c-1.17,1.943-2.213,3.481-3.129,4.612c-0.859,1.052-1.947,1.665-3.264,1.843
		c-1.682,0.238-4.215,0.356-7.6,0.356c-2.379,0-4.434-0.052-6.166-0.158c-1.049-0.062-1.791-0.15-2.225-0.265
		c-0.434-0.115-0.707-0.301-0.818-0.556c-0.154-0.311-0.018-0.923,0.404-1.837c0.422-0.915,1.234-2.37,2.436-4.366
		c1.17-1.945,2.176-3.419,3.018-4.428c0.521-0.627,1.043-1.081,1.564-1.357c0.521-0.279,1.217-0.476,2.086-0.59
		c1.121-0.153,2.648-0.248,4.58-0.286c0.643-0.013,1.332-0.02,2.064-0.02c2.887,0.009,4.83,0.029,5.826,0.06
		c0.998,0.032,1.869,0.1,2.613,0.206C220.225,34.414,220.666,35.002,220.275,35.991z"/>
	<path fill="#FFFFFF" d="M127.509,31.843l-22.796,18.09h3.17l4.804-3.817h16.984l0.195,3.817h3.108l-0.989-18.09H127.509z
		 M115.317,43.996l12.669-10.033h1.123l0.5,10.033H115.317z"/>
	<polygon fill="#FFFFFF" points="252.83,31.843 243.283,47.707 242.637,47.707 233.785,31.843 229.123,31.843 218.234,49.933 
		221.035,49.933 230.559,34.108 231.174,34.108 240.004,49.933 244.742,49.933 255.631,31.843 	"/>
	<polygon fill="#FFFFFF" points="248.369,49.933 268.969,49.933 270.246,47.813 252.445,47.813 256.178,41.61 273.209,41.61 
		274.486,39.489 257.455,39.489 260.781,33.963 278.564,33.963 279.842,31.843 259.258,31.843 	"/>
	<path fill="#FFFFFF" d="M118.082,0.005c0,0-1.265-0.06-1.707,0.219c-0.479,0.301-0.834,0.72-2.724,3.744
		c-1.89,3.024-20.714,33.682-20.714,33.682s-0.3,0.671-0.723,0.561c-0.423-0.108-18.557-21.612-18.557-21.612
		s-1.451-1.643-2.383-2.063c0,0-0.628-0.229-1.881-0.288c0,0-2.683-0.012-5.75-0.003c-6.881,0.019-10.987,0.003-10.987,0.003
		L0.264,14.234v0.948v1.177v1.057l53.181,0.054c0,0,0.144-0.474,2.939,2.828c2.794,3.302,22.935,27.737,22.935,27.737
		s1.161,1.729,3.903,1.741c0.279,0.001,8.441,0,8.441,0s0.711,0.042,1.132-0.297c0.347-0.281,0.791-0.905,1.29-1.826
		c1.289-2.38,21.326-37.021,21.326-37.021s0.262-0.511,1.007-0.736c0.452-0.136,1.091-0.181,1.99-0.176
		c3.258,0.017,184.27,0.029,184.27,0.029l0.049-0.046l0.01-9.699H118.082z"/>
</g>
</svg>
